<?xml version="1.0" encoding="UTF-8" standalone="no"?>
<svg
   xmlns:dc="http://purl.org/dc/elements/1.1/"
   xmlns:cc="http://creativecommons.org/ns#"
   xmlns:rdf="http://www.w3.org/1999/02/22-rdf-syntax-ns#"
   xmlns:svg="http://www.w3.org/2000/svg"
   xmlns="http://www.w3.org/2000/svg"
   viewBox="0 0 75.152954 117.68191"
   height="117.68191"
   width="75.152954"
   xml:space="preserve"
   id="svg20"
   version="1.1"><metadata
     id="metadata26"><rdf:RDF><cc:Work
         rdf:about=""><dc:format>image/svg+xml</dc:format><dc:type
           rdf:resource="http://purl.org/dc/dcmitype/StillImage" /><dc:title></dc:title></cc:Work></rdf:RDF></metadata><defs
     id="defs24" /><g
     transform="translate(-175.2037,-168.62061)"
     id="g28"><g
       id="g4321"><g
         id="g30"
         transform="matrix(0.1595942,0,0,0.16734472,147.64162,140.81779)"
         style="stroke-width:6.11907053"><path
           d="m 175.67999,169.11999 v 92.96"
           style="fill:none;stroke:#000000;stroke-width:5.87430716;stroke-linecap:round;stroke-linejoin:round;stroke-miterlimit:10;stroke-dasharray:none;stroke-opacity:1"
           id="path32" /></g><g
         id="g34"
         transform="matrix(0.1595942,0,0,0.16734472,147.64162,140.81779)"
         style="stroke-width:6.11907053"><path
           d="M 175.67999,285.28 V 866.40002 H 521.59998"
           style="fill:none;stroke:#000000;stroke-width:5.87430716;stroke-linecap:round;stroke-linejoin:round;stroke-miterlimit:10;stroke-dasharray:none;stroke-opacity:1"
           id="path36" /></g><g
         id="g38"
         transform="matrix(0.1595942,0,0,0.16734472,147.64162,140.81779)"
         style="stroke-width:6.11907053"><path
           d="m 550.08002,866.40002 h 90.55999 v -129.44"
           style="fill:none;stroke:#000000;stroke-width:5.87430716;stroke-linecap:round;stroke-linejoin:round;stroke-miterlimit:10;stroke-dasharray:none;stroke-opacity:1"
           id="path40" /></g><g
         id="g42"
         transform="matrix(0.1595942,0,0,0.16734472,147.64162,140.81779)"
         style="stroke-width:6.11907053"><path
           d="M 640.64001,696.47998 V 169.11999 H 292"
           style="fill:none;stroke:#000000;stroke-width:5.87430716;stroke-linecap:round;stroke-linejoin:round;stroke-miterlimit:10;stroke-dasharray:none;stroke-opacity:1"
           id="path44" /></g><g
         id="g46"
         transform="matrix(0.1595942,0,0,0.16734472,147.64162,140.81779)"
         style="stroke-width:6.11907053"><path
           d="M 268.64001,169.11999 H 175.67999 M 408.16,866.40002 h 0.16001 M 401.44,527.20001 238.72,410.88"
           style="fill:none;stroke:#000000;stroke-width:5.87430716;stroke-linecap:round;stroke-linejoin:round;stroke-miterlimit:10;stroke-dasharray:none;stroke-opacity:1"
           id="path48" /></g><g
         id="g50"
         transform="matrix(0.1595942,0,0,0.16734472,186.81242,206.06885)"
         style="stroke-width:6.11907053"><path
           d="m 0,0 -2.72,0.32 -2.4,0.8 -2.24,1.44 -1.92,1.92 -1.28,2.24 -0.8,2.56 -0.32,2.72 0.48,2.56 0.96,2.560001 1.44,2.08 2.08,1.759998"
           style="fill:none;stroke:#000000;stroke-width:5.87430716;stroke-linecap:round;stroke-linejoin:round;stroke-miterlimit:10;stroke-dasharray:none;stroke-opacity:1"
           id="path52" /></g><g
         id="g54"
         transform="matrix(0.1595942,0,0,0.16734472,147.64162,140.81779)"
         style="stroke-width:6.11907053"><path
           d="M 396.48001,495.20001 281.76001,413.12 h 114.72"
           style="fill:none;stroke:#000000;stroke-width:5.87430716;stroke-linecap:round;stroke-linejoin:round;stroke-miterlimit:10;stroke-dasharray:none;stroke-opacity:1"
           id="path56" /></g><g
         id="g58"
         transform="matrix(0.1595942,0,0,0.16734472,147.64162,140.81779)"
         style="stroke-width:6.11907053"><path
           d="M 419.84,413.12 H 548.64001 M 245.44,389.92001 h 151.04001 m 23.35999,0 h 151.04"
           style="fill:none;stroke:#000000;stroke-width:5.87430716;stroke-linecap:round;stroke-linejoin:round;stroke-miterlimit:10;stroke-dasharray:none;stroke-opacity:1"
           id="path60" /></g><g
         id="g62"
         transform="matrix(0.1595942,0,0,0.16734472,240.28285,209.12122)"
         style="stroke-width:6.11907053"><path
           d="M 0,0 1.12,-2.24 1.92,-4.64 2.08,-7.2 1.6,-9.6 0.8,-12 -0.64,-14.08 -2.56,-15.84 -4.64,-17.120001 -7.04,-18.08 -9.6,-18.24"
           style="fill:none;stroke:#000000;stroke-width:5.87430716;stroke-linecap:round;stroke-linejoin:round;stroke-miterlimit:10;stroke-dasharray:none;stroke-opacity:1"
           id="path64" /></g><g
         id="g66"
         transform="matrix(0.1595942,0,0,0.16734472,147.64162,140.81779)"
         style="stroke-width:6.11907053"><path
           d="M 548.64001,413.12 398.56,627.35998 M 580.47998,408.16 430.56,622.40002 m -22.4,23.19996 h 140.48001"
           style="fill:none;stroke:#000000;stroke-width:5.87430716;stroke-linecap:round;stroke-linejoin:round;stroke-miterlimit:10;stroke-dasharray:none;stroke-opacity:1"
           id="path68" /></g><g
         id="g70"
         transform="matrix(0.1595942,0,0,0.16734472,211.24948,245.80318)"
         style="stroke-width:6.11907053"><path
           d="m 0,0 -1.12,2.08 -0.8,2.56 -0.16,2.4 0.48,2.56 0.96,2.4 1.28,2.08 1.92,1.76 2.08,1.280001 2.4,0.799999 2.56,0.32"
           style="fill:none;stroke:#000000;stroke-width:5.87430716;stroke-linecap:round;stroke-linejoin:round;stroke-miterlimit:10;stroke-dasharray:none;stroke-opacity:1"
           id="path72" /></g><g
         id="g74"
         transform="matrix(0.1595942,0,0,0.16734472,147.64162,140.81779)"
         style="stroke-width:6.11907053"><path
           d="M 430.56,622.40002 H 570.88"
           style="fill:none;stroke:#000000;stroke-width:5.87430716;stroke-linecap:round;stroke-linejoin:round;stroke-miterlimit:10;stroke-dasharray:none;stroke-opacity:1"
           id="path76" /></g><g
         id="g78"
         transform="matrix(0.1595942,0,0,0.16734472,220.23783,278.04047)"
         style="stroke-width:6.11907053"><path
           d="m 0,0 125.6,-179.36 1.12,-2.24001 0.8,-2.39999 0.16,-2.56 -0.48,-2.55999 -0.8,-2.24001 -1.44,-2.08 -1.92,-1.76 -2.08,-1.44 -2.4,-0.8 -2.56,-0.16001"
           style="fill:none;stroke:#000000;stroke-width:5.87430716;stroke-linecap:round;stroke-linejoin:round;stroke-miterlimit:10;stroke-dasharray:none;stroke-opacity:1"
           id="path80" /></g><g
         id="g82"
         transform="matrix(0.1595942,0,0,0.16734472,235.20138,248.85554)"
         style="stroke-width:6.11907053"><path
           d="m 0,0 -112.8,160.96001 -1.28,2.23999 -0.64,2.55999 -0.16,2.56002 0.48,2.55999 0.96,2.4 1.6,2.24 1.92,1.59999 2.24,1.28 2.56,0.80001 h 2.56 l 2.56,-0.32 2.400002,-1.12001 2.080001,-1.43998 1.759995,-1.92002"
           style="fill:none;stroke:#000000;stroke-width:5.87430716;stroke-linecap:round;stroke-linejoin:round;stroke-miterlimit:10;stroke-dasharray:none;stroke-opacity:1"
           id="path84" /></g><g
         id="g86"
         transform="matrix(0.1595942,0,0,0.16734472,147.64162,140.81779)"
         style="stroke-width:6.11907053"><path
           d="M 640.64001,696.47998 521.59998,866.40002 m 119.04003,-129.44 -90.55999,129.44"
           style="fill:none;stroke:#000000;stroke-width:5.87430716;stroke-linecap:round;stroke-linejoin:round;stroke-miterlimit:10;stroke-dasharray:none;stroke-opacity:1"
           id="path88" /></g><g
         id="g90"
         transform="matrix(0.1595942,0,0,0.16734472,147.64162,140.81779)"
         style="stroke-width:6.11907053"><path
           d="m 175.67999,169.11999 v 92.96 h 92.96002 v -92.96"
           style="fill:none;stroke:#000000;stroke-width:5.87430716;stroke-linecap:round;stroke-linejoin:round;stroke-miterlimit:10;stroke-dasharray:none;stroke-opacity:1"
           id="path92" /></g><g
         id="g94"
         transform="matrix(0.1595942,0,0,0.16734472,147.64162,140.81779)"
         style="stroke-width:6.11907053"><path
           d="M 292,169.11999 V 285.28 H 175.67999"
           style="fill:none;stroke:#000000;stroke-width:5.87430716;stroke-linecap:round;stroke-linejoin:round;stroke-miterlimit:10;stroke-dasharray:none;stroke-opacity:1"
           id="path96" /></g><g
         id="g98"
         transform="matrix(0.1595942,0,0,0.16734472,147.64162,140.81779)"
         style="stroke-width:6.11907053"><path
           d="M 396.48001,215.52 V 495.20001"
           style="fill:none;stroke:#000000;stroke-width:5.87430716;stroke-linecap:round;stroke-linejoin:round;stroke-miterlimit:10;stroke-dasharray:none;stroke-opacity:1"
           id="path100" /></g><g
         id="g102"
         transform="matrix(0.1595942,0,0,0.16734472,214.64565,176.88393)"
         style="stroke-width:6.11907053"><path
           d="m 0,0 -0.32,-2.56 -0.96,-2.4 -1.28,-2.24 -1.92,-1.92 -2.08,-1.28 -2.56,-0.96 -2.56,-0.32 -2.56,0.32 -2.559999,0.96 -2.08,1.28 -1.92,1.92 -1.280001,2.24 -0.960001,2.4 -0.32,2.56"
           style="fill:none;stroke:#000000;stroke-width:5.87430716;stroke-linecap:round;stroke-linejoin:round;stroke-miterlimit:10;stroke-dasharray:none;stroke-opacity:1"
           id="path104" /></g><g
         id="g106"
         transform="matrix(0.1595942,0,0,0.16734472,147.64162,140.81779)"
         style="stroke-width:6.11907053"><path
           d="M 419.84,215.52 V 517.76001"
           style="fill:none;stroke:#000000;stroke-width:5.87430716;stroke-linecap:round;stroke-linejoin:round;stroke-miterlimit:10;stroke-dasharray:none;stroke-opacity:1"
           id="path108" /></g><g
         id="g110"
         transform="matrix(0.1595942,0,0,0.16734472,211.70911,229.04193)"
         style="stroke-width:6.11907053"><path
           d="M 0,0 2.24,1.28 4.64,1.92 7.2,2.08 9.6,1.76 12,0.8 14.08,-0.48 16,-2.4 17.280001,-4.48 18.08,-6.88 18.4,-9.44"
           style="fill:none;stroke:#000000;stroke-width:5.87430716;stroke-linecap:round;stroke-linejoin:round;stroke-miterlimit:10;stroke-dasharray:none;stroke-opacity:1"
           id="path112" /></g><g
         id="g114"
         transform="matrix(0.1595942,0,0,0.16734472,147.64162,140.81779)"
         style="stroke-width:6.11907053"><path
           d="m 564.64001,262.07999 -3.35998,-5.12 -4,-4.63998"
           style="fill:none;stroke:#000000;stroke-width:5.87430716;stroke-linecap:round;stroke-linejoin:round;stroke-miterlimit:10;stroke-dasharray:none;stroke-opacity:1"
           id="path116" /></g><g
         id="g118"
         transform="matrix(0.1595942,0,0,0.16734472,147.64162,140.81779)"
         style="stroke-width:6.11907053"><path
           d="m 547.67999,244.96001 -5.44,-2.72001 -5.76001,-1.91999"
           style="fill:none;stroke:#000000;stroke-width:5.87430716;stroke-linecap:round;stroke-linejoin:round;stroke-miterlimit:10;stroke-dasharray:none;stroke-opacity:1"
           id="path120" /></g><g
         id="g122"
         transform="matrix(0.1595942,0,0,0.16734472,147.64162,140.81779)"
         style="stroke-width:6.11907053"><path
           d="m 524.47998,238.72 -6.07996,0.48 -6.08001,1.12001"
           style="fill:none;stroke:#000000;stroke-width:5.87430716;stroke-linecap:round;stroke-linejoin:round;stroke-miterlimit:10;stroke-dasharray:none;stroke-opacity:1"
           id="path124" /></g><g
         id="g126"
         transform="matrix(0.1595942,0,0,0.16734472,147.64162,140.81779)"
         style="stroke-width:6.11907053"><path
           d="m 501.12,244.96001 -4.96,3.36 -4.64001,4"
           style="fill:none;stroke:#000000;stroke-width:5.87430716;stroke-linecap:round;stroke-linejoin:round;stroke-miterlimit:10;stroke-dasharray:none;stroke-opacity:1"
           id="path128" /></g><g
         id="g130"
         transform="matrix(0.1595942,0,0,0.16734472,147.64162,140.81779)"
         style="stroke-width:6.11907053"><path
           d="m 484.16,262.07999 -2.72,5.44 -1.92001,5.76001"
           style="fill:none;stroke:#000000;stroke-width:5.87430716;stroke-linecap:round;stroke-linejoin:round;stroke-miterlimit:10;stroke-dasharray:none;stroke-opacity:1"
           id="path132" /></g><g
         id="g134"
         transform="matrix(0.1595942,0,0,0.16734472,147.64162,140.81779)"
         style="stroke-width:6.11907053"><path
           d="m 477.92001,285.28 0.31998,6.07999 1.28,5.92001"
           style="fill:none;stroke:#000000;stroke-width:5.87430716;stroke-linecap:round;stroke-linejoin:round;stroke-miterlimit:10;stroke-dasharray:none;stroke-opacity:1"
           id="path136" /></g><g
         id="g138"
         transform="matrix(0.1595942,0,0,0.16734472,147.64162,140.81779)"
         style="stroke-width:6.11907053"><path
           d="m 484.16,308.48001 3.35999,5.12 4,4.47998"
           style="fill:none;stroke:#000000;stroke-width:5.87430716;stroke-linecap:round;stroke-linejoin:round;stroke-miterlimit:10;stroke-dasharray:none;stroke-opacity:1"
           id="path140" /></g><g
         id="g142"
         transform="matrix(0.1595942,0,0,0.16734472,147.64162,140.81779)"
         style="stroke-width:6.11907053"><path
           d="m 501.12,325.60001 5.44,2.55999 5.76001,2.07999"
           style="fill:none;stroke:#000000;stroke-width:5.87430716;stroke-linecap:round;stroke-linejoin:round;stroke-miterlimit:10;stroke-dasharray:none;stroke-opacity:1"
           id="path144" /></g><g
         id="g146"
         transform="matrix(0.1595942,0,0,0.16734472,147.64162,140.81779)"
         style="stroke-width:6.11907053"><path
           d="m 524.47998,331.84 5.92004,-0.48001 6.07996,-1.12"
           style="fill:none;stroke:#000000;stroke-width:5.87430716;stroke-linecap:round;stroke-linejoin:round;stroke-miterlimit:10;stroke-dasharray:none;stroke-opacity:1"
           id="path148" /></g><g
         id="g150"
         transform="matrix(0.1595942,0,0,0.16734472,147.64162,140.81779)"
         style="stroke-width:6.11907053"><path
           d="m 547.67999,325.60001 4.96002,-3.52002 4.64002,-4"
           style="fill:none;stroke:#000000;stroke-width:5.87430716;stroke-linecap:round;stroke-linejoin:round;stroke-miterlimit:10;stroke-dasharray:none;stroke-opacity:1"
           id="path152" /></g><g
         id="g154"
         transform="matrix(0.1595942,0,0,0.16734472,147.64162,140.81779)"
         style="stroke-width:6.11907053"><path
           d="m 564.64001,308.48001 2.71997,-5.44 1.92005,-5.76001"
           style="fill:none;stroke:#000000;stroke-width:5.87430716;stroke-linecap:round;stroke-linejoin:round;stroke-miterlimit:10;stroke-dasharray:none;stroke-opacity:1"
           id="path156" /></g><g
         id="g158"
         transform="matrix(0.1595942,0,0,0.16734472,147.64162,140.81779)"
         style="stroke-width:6.11907053"><path
           d="m 570.88,285.28 -0.32,-6.07999 -1.27997,-5.92001"
           style="fill:none;stroke:#000000;stroke-width:5.87430716;stroke-linecap:round;stroke-linejoin:round;stroke-miterlimit:10;stroke-dasharray:none;stroke-opacity:1"
           id="path160" /></g><g
         id="g162"
         transform="matrix(0.1595942,0,0,0.16734472,229.40492,181.03408)"
         style="stroke-width:6.11907053"><path
           d="m 0,0 -1.44,-5.6 m -9.76,10.24 -2.88,-4.96 m -6.719999,12.32 -4.16,-4 M -28.16,21.76 -33.279999,18.719999 m 0.48,14.24 -5.600003,-1.599998 m 4,13.599998 H -40.16 m 98.720001,0 H 64.32 M 12.16,-1.6 v -5.76 m 12,7.36 1.44,-5.6 m 9.760001,10.24 2.880001,-4.96 m 6.719997,12.32 4.16,-4 M 52.32,21.76 57.439999,18.719999 m -0.48,14.24 5.600002,-1.599998 M 0,89.919998 -1.44,95.519997 m -9.76,-10.239998 -2.88,4.959999 m -6.719999,-12.479996 -4.16,4.159996 M -28.16,68.160004 l -5.119999,2.879997 m 0.48,-14.080002 -5.600003,1.600002 M 12.16,91.519997 v 5.760002 m 12,-7.360001 1.44,5.599999 m 9.760001,-10.239998 2.880001,4.959999 m 6.719997,-12.479996 4.16,4.159996 M 52.32,68.160004 l 5.119999,2.879997 m -0.48,-14.080002 5.600002,1.600002"
           style="fill:none;stroke:#000000;stroke-width:5.87430716;stroke-linecap:round;stroke-linejoin:round;stroke-miterlimit:10;stroke-dasharray:none;stroke-opacity:1"
           id="path164" /></g><g
         id="g166"
         transform="matrix(0.1595942,0,0,0.16734472,147.64162,140.81779)"
         style="stroke-width:6.11907053"><path
           d="m 473.92001,271.67999 -1.44,6.72 L 472.16,285.28"
           style="fill:none;stroke:#000000;stroke-width:5.87430716;stroke-linecap:round;stroke-linejoin:round;stroke-miterlimit:10;stroke-dasharray:none;stroke-opacity:1"
           id="path168" /></g><g
         id="g170"
         transform="matrix(0.1595942,0,0,0.16734472,147.64162,140.81779)"
         style="stroke-width:6.11907053"><path
           d="m 473.92001,298.88 2.07999,6.4 3.04001,6.07999"
           style="fill:none;stroke:#000000;stroke-width:5.87430716;stroke-linecap:round;stroke-linejoin:round;stroke-miterlimit:10;stroke-dasharray:none;stroke-opacity:1"
           id="path172" /></g><g
         id="g174"
         transform="matrix(0.1595942,0,0,0.16734472,147.64162,140.81779)"
         style="stroke-width:6.11907053"><path
           d="m 487.35999,322.23999 5.12002,4.48001 5.75998,3.84"
           style="fill:none;stroke:#000000;stroke-width:5.87430716;stroke-linecap:round;stroke-linejoin:round;stroke-miterlimit:10;stroke-dasharray:none;stroke-opacity:1"
           id="path176" /></g><g
         id="g178"
         transform="matrix(0.1595942,0,0,0.16734472,147.64162,140.81779)"
         style="stroke-width:6.11907053"><path
           d="m 510.88,335.84 6.71998,1.28 6.88,0.48001"
           style="fill:none;stroke:#000000;stroke-width:5.87430716;stroke-linecap:round;stroke-linejoin:round;stroke-miterlimit:10;stroke-dasharray:none;stroke-opacity:1"
           id="path180" /></g><g
         id="g182"
         transform="matrix(0.1595942,0,0,0.16734472,147.64162,140.81779)"
         style="stroke-width:6.11907053"><path
           d="m 537.91998,335.84 6.56,-2.23999 L 550.56,330.56"
           style="fill:none;stroke:#000000;stroke-width:5.87430716;stroke-linecap:round;stroke-linejoin:round;stroke-miterlimit:10;stroke-dasharray:none;stroke-opacity:1"
           id="path184" /></g><g
         id="g186"
         transform="matrix(0.1595942,0,0,0.16734472,147.64162,140.81779)"
         style="stroke-width:6.11907053"><path
           d="m 561.44,322.23999 4.47998,-5.11999 3.84003,-5.76001"
           style="fill:none;stroke:#000000;stroke-width:5.87430716;stroke-linecap:round;stroke-linejoin:round;stroke-miterlimit:10;stroke-dasharray:none;stroke-opacity:1"
           id="path188" /></g><g
         id="g190"
         transform="matrix(0.1595942,0,0,0.16734472,147.64162,140.81779)"
         style="stroke-width:6.11907053"><path
           d="m 574.88,298.88 1.44001,-6.72 0.32,-6.88"
           style="fill:none;stroke:#000000;stroke-width:5.87430716;stroke-linecap:round;stroke-linejoin:round;stroke-miterlimit:10;stroke-dasharray:none;stroke-opacity:1"
           id="path192" /></g><g
         id="g194"
         transform="matrix(0.1595942,0,0,0.16734472,147.64162,140.81779)"
         style="stroke-width:6.11907053"><path
           d="m 574.88,271.67999 -2.08001,-6.39999 -3.03998,-6.23999"
           style="fill:none;stroke:#000000;stroke-width:5.87430716;stroke-linecap:round;stroke-linejoin:round;stroke-miterlimit:10;stroke-dasharray:none;stroke-opacity:1"
           id="path196" /></g><g
         id="g198"
         transform="matrix(0.1595942,0,0,0.16734472,147.64162,140.81779)"
         style="stroke-width:6.11907053"><path
           d="M 561.44,248.32001 556.32001,243.84 550.56,240"
           style="fill:none;stroke:#000000;stroke-width:5.87430716;stroke-linecap:round;stroke-linejoin:round;stroke-miterlimit:10;stroke-dasharray:none;stroke-opacity:1"
           id="path200" /></g><g
         id="g202"
         transform="matrix(0.1595942,0,0,0.16734472,147.64162,140.81779)"
         style="stroke-width:6.11907053"><path
           d="m 537.91998,234.72 -6.71997,-1.28 -6.72003,-0.47999"
           style="fill:none;stroke:#000000;stroke-width:5.87430716;stroke-linecap:round;stroke-linejoin:round;stroke-miterlimit:10;stroke-dasharray:none;stroke-opacity:1"
           id="path204" /></g><g
         id="g206"
         transform="matrix(0.1595942,0,0,0.16734472,147.64162,140.81779)"
         style="stroke-width:6.11907053"><path
           d="m 510.88,234.72 -6.55999,2.24001 L 498.23999,240"
           style="fill:none;stroke:#000000;stroke-width:5.87430716;stroke-linecap:round;stroke-linejoin:round;stroke-miterlimit:10;stroke-dasharray:none;stroke-opacity:1"
           id="path208" /></g><g
         id="g210"
         transform="matrix(0.1595942,0,0,0.16734472,147.64162,140.81779)"
         style="stroke-width:6.11907053"><path
           d="M 487.35999,248.32001 482.88,253.44 l -3.83999,5.60001 5.11999,3.03998"
           style="fill:none;stroke:#000000;stroke-width:5.87430716;stroke-linecap:round;stroke-linejoin:round;stroke-miterlimit:10;stroke-dasharray:none;stroke-opacity:1"
           id="path212" /></g><g
         id="g214"
         transform="matrix(0.1595942,0,0,0.16734472,210.43236,278.84372)"
         style="stroke-width:6.11907053"><path
           d="m 0,0 -0.32,-3.52 -0.96,-3.52 -1.28,-3.36 -1.92,-3.2 -2.4,-2.72 -2.72,-2.399999 -3.2,-1.92 -3.36,-1.440001 -3.52,-0.799999 -3.680001,-0.320002 -3.519998,0.320002 -3.68,0.799999 -3.359999,1.440001 -3.040001,1.92 L -39.68,-16.32 -42.080002,-13.6 -44,-10.4 l -1.439999,3.36 -0.800003,3.52 -0.319999,3.52 0.319999,3.68 0.800003,3.52 1.439999,3.36 1.919998,3.2 2.400002,2.72 2.720001,2.399999 3.040001,1.92 3.359999,1.440001 3.68,0.800001 3.519998,0.32 3.680001,-0.32 3.52,-0.800001 3.36,-1.440001 3.2,-1.92 2.72,-2.399999 2.4,-2.72 1.92,-3.2 1.28,-3.36 0.96,-3.52 z"
           style="fill:none;stroke:#000000;stroke-width:5.87430716;stroke-linecap:round;stroke-linejoin:round;stroke-miterlimit:10;stroke-dasharray:none;stroke-opacity:1"
           id="path216" /></g><g
         id="g218"
         transform="matrix(0.1595942,0,0,0.16734472,196.28593,261.54697)"
         style="stroke-width:6.11907053"><path
           d="m 0,0 -0.32,-4.48 -0.8,-4.48 -1.6,-4.32 -1.92,-4.160001 -2.56,-3.84 -3.04,-3.359998 -3.36,-3.040001 -3.840001,-2.56 -4.159999,-1.92 -4.32,-1.439998 -4.48,-0.960003 -4.480001,-0.32 -4.48,0.32 -4.479999,0.960003 -4.32,1.439998 -4.16,1.92 -3.84,2.56 -3.36,3.040001 -3.040001,3.359998 -2.560002,3.84 -1.919998,4.160001 -1.440002,4.32 -0.959999,4.48 -0.32,4.48 0.32,4.48 0.959999,4.48 1.440002,4.32 1.919998,4.160001 2.560002,3.84 3.040001,3.359998 3.36,3.040001 3.84,2.56 4.16,1.92 4.32,1.599998 4.479999,0.800003 4.48,0.32 4.480001,-0.32 4.48,-0.800003 4.32,-1.599998 4.159999,-1.92 3.840001,-2.56 3.36,-3.040001 3.04,-3.359998 2.56,-3.84 1.92,-4.160001 1.6,-4.32 0.8,-4.48 z"
           style="fill:none;stroke:#000000;stroke-width:5.87430716;stroke-linecap:round;stroke-linejoin:round;stroke-miterlimit:10;stroke-dasharray:none;stroke-opacity:1"
           id="path220" /></g><g
         id="g222"
         transform="matrix(0.1595942,0,0,0.16734472,194.03884,237.82418)"
         style="stroke-width:6.11907053"><path
           d="m 0,0 -0.32,-5.12 -0.8,-5.12 -1.44,-4.96 -2.08,-4.96 -2.4,-4.479999 -3.04,-4.32 -3.52,-3.84 L -17.440001,-36.32 -21.76,-39.360001 -26.24,-41.759998 -31.040001,-43.84 -36.16,-45.279999 l -5.119999,-0.800003 -5.120003,-0.32 -5.279998,0.32 -5.119999,0.800003 -4.959999,1.439999 -4.960003,2.080002 -4.479996,2.399997 -4.32,3.040001 -3.840004,3.520001 -3.519996,3.84 -3.040001,4.32 L -88.32,-20.16 l -2.080002,4.96 -1.439994,4.96 -0.800003,5.12 -0.32,5.12 0.32,5.28 0.800003,5.12 1.439994,4.96 2.080002,4.96 2.400002,4.479999 3.040001,4.320002 3.519996,3.839998 3.840004,3.520001 4.32,3.04 4.479996,2.399998 4.960003,2.080002 4.959999,1.439999 5.119999,0.800003 5.279998,0.319999 5.120003,-0.319999 L -36.16,45.439999 -31.040001,44 -26.24,41.919998 -21.76,39.52 -17.440001,36.48 -13.6,32.959999 l 3.52,-3.839998 3.04,-4.320002 2.4,-4.479999 2.08,-4.96 1.44,-4.96 0.8,-5.12 z"
           style="fill:none;stroke:#000000;stroke-width:5.87430716;stroke-linecap:round;stroke-linejoin:round;stroke-miterlimit:10;stroke-dasharray:none;stroke-opacity:1"
           id="path224" /></g><g
         id="g3931"
         transform="matrix(0.1595942,0,0,0.16734472,147.64162,140.81779)"
         style="stroke-width:6.11907053"><path
           id="path3929"
           style="fill:none;stroke:#000000;stroke-width:5.87430716;stroke-linecap:round;stroke-linejoin:round;stroke-miterlimit:10;stroke-dasharray:none;stroke-opacity:1"
           d="m 175.67999,169.11999 v 92.96" /></g><g
         id="g3935"
         transform="matrix(0.1595942,0,0,0.16734472,147.64162,140.81779)"
         style="stroke-width:6.11907053"><path
           id="path3933"
           style="fill:none;stroke:#000000;stroke-width:5.87430716;stroke-linecap:round;stroke-linejoin:round;stroke-miterlimit:10;stroke-dasharray:none;stroke-opacity:1"
           d="M 175.67999,285.28 V 866.40002 H 521.59998" /></g><g
         id="g3939"
         transform="matrix(0.1595942,0,0,0.16734472,147.64162,140.81779)"
         style="stroke-width:6.11907053"><path
           id="path3937"
           style="fill:none;stroke:#000000;stroke-width:5.87430716;stroke-linecap:round;stroke-linejoin:round;stroke-miterlimit:10;stroke-dasharray:none;stroke-opacity:1"
           d="m 550.08002,866.40002 h 90.55999 v -129.44" /></g><g
         id="g3943"
         transform="matrix(0.1595942,0,0,0.16734472,147.64162,140.81779)"
         style="stroke-width:6.11907053"><path
           id="path3941"
           style="fill:none;stroke:#000000;stroke-width:5.87430716;stroke-linecap:round;stroke-linejoin:round;stroke-miterlimit:10;stroke-dasharray:none;stroke-opacity:1"
           d="M 640.64001,696.47998 V 169.11999 H 292" /></g><g
         id="g3947"
         transform="matrix(0.1595942,0,0,0.16734472,147.64162,140.81779)"
         style="stroke-width:6.11907053"><path
           id="path3945"
           style="fill:none;stroke:#000000;stroke-width:5.87430716;stroke-linecap:round;stroke-linejoin:round;stroke-miterlimit:10;stroke-dasharray:none;stroke-opacity:1"
           d="M 268.64001,169.11999 H 175.67999 M 408.16,866.40002 h 0.16001 M 401.44,527.20001 238.72,410.88" /></g><g
         transform="matrix(0.1595942,0,0,0.16734472,186.81242,206.06885)"
         id="g3951"
         style="stroke-width:6.11907053"><path
           id="path3949"
           style="fill:none;stroke:#000000;stroke-width:5.87430716;stroke-linecap:round;stroke-linejoin:round;stroke-miterlimit:10;stroke-dasharray:none;stroke-opacity:1"
           d="m 0,0 -2.72,0.32 -2.4,0.8 -2.24,1.44 -1.92,1.92 -1.28,2.24 -0.8,2.56 -0.32,2.72 0.48,2.56 0.96,2.560001 1.44,2.08 2.08,1.759998" /></g><g
         id="g3955"
         transform="matrix(0.1595942,0,0,0.16734472,147.64162,140.81779)"
         style="stroke-width:6.11907053"><path
           id="path3953"
           style="fill:none;stroke:#000000;stroke-width:5.87430716;stroke-linecap:round;stroke-linejoin:round;stroke-miterlimit:10;stroke-dasharray:none;stroke-opacity:1"
           d="M 396.48001,495.20001 281.76001,413.12 h 114.72" /></g><g
         id="g3959"
         transform="matrix(0.1595942,0,0,0.16734472,147.64162,140.81779)"
         style="stroke-width:6.11907053"><path
           id="path3957"
           style="fill:none;stroke:#000000;stroke-width:5.87430716;stroke-linecap:round;stroke-linejoin:round;stroke-miterlimit:10;stroke-dasharray:none;stroke-opacity:1"
           d="M 419.84,413.12 H 548.64001 M 245.44,389.92001 h 151.04001 m 23.35999,0 h 151.04" /></g><g
         transform="matrix(0.1595942,0,0,0.16734472,240.28285,209.12122)"
         id="g3963"
         style="stroke-width:6.11907053"><path
           id="path3961"
           style="fill:none;stroke:#000000;stroke-width:5.87430716;stroke-linecap:round;stroke-linejoin:round;stroke-miterlimit:10;stroke-dasharray:none;stroke-opacity:1"
           d="M 0,0 1.12,-2.24 1.92,-4.64 2.08,-7.2 1.6,-9.6 0.8,-12 -0.64,-14.08 -2.56,-15.84 -4.64,-17.120001 -7.04,-18.08 -9.6,-18.24" /></g><g
         id="g3967"
         transform="matrix(0.1595942,0,0,0.16734472,147.64162,140.81779)"
         style="stroke-width:6.11907053"><path
           id="path3965"
           style="fill:none;stroke:#000000;stroke-width:5.87430716;stroke-linecap:round;stroke-linejoin:round;stroke-miterlimit:10;stroke-dasharray:none;stroke-opacity:1"
           d="M 548.64001,413.12 398.56,627.35998 M 580.47998,408.16 430.56,622.40002 m -22.4,23.19996 h 140.48001" /></g><g
         transform="matrix(0.1595942,0,0,0.16734472,211.24948,245.80318)"
         id="g3971"
         style="stroke-width:6.11907053"><path
           id="path3969"
           style="fill:none;stroke:#000000;stroke-width:5.87430716;stroke-linecap:round;stroke-linejoin:round;stroke-miterlimit:10;stroke-dasharray:none;stroke-opacity:1"
           d="m 0,0 -1.12,2.08 -0.8,2.56 -0.16,2.4 0.48,2.56 0.96,2.4 1.28,2.08 1.92,1.76 2.08,1.280001 2.4,0.799999 2.56,0.32" /></g><g
         id="g3975"
         transform="matrix(0.1595942,0,0,0.16734472,147.64162,140.81779)"
         style="stroke-width:6.11907053"><path
           id="path3973"
           style="fill:none;stroke:#000000;stroke-width:5.87430716;stroke-linecap:round;stroke-linejoin:round;stroke-miterlimit:10;stroke-dasharray:none;stroke-opacity:1"
           d="M 430.56,622.40002 H 570.88" /></g><g
         transform="matrix(0.1595942,0,0,0.16734472,220.23783,278.04047)"
         id="g3979"
         style="stroke-width:6.11907053"><path
           id="path3977"
           style="fill:none;stroke:#000000;stroke-width:5.87430716;stroke-linecap:round;stroke-linejoin:round;stroke-miterlimit:10;stroke-dasharray:none;stroke-opacity:1"
           d="m 0,0 125.6,-179.36 1.12,-2.24001 0.8,-2.39999 0.16,-2.56 -0.48,-2.55999 -0.8,-2.24001 -1.44,-2.08 -1.92,-1.76 -2.08,-1.44 -2.4,-0.8 -2.56,-0.16001" /></g><g
         transform="matrix(0.1595942,0,0,0.16734472,235.20138,248.85554)"
         id="g3983"
         style="stroke-width:6.11907053"><path
           id="path3981"
           style="fill:none;stroke:#000000;stroke-width:5.87430716;stroke-linecap:round;stroke-linejoin:round;stroke-miterlimit:10;stroke-dasharray:none;stroke-opacity:1"
           d="m 0,0 -112.8,160.96001 -1.28,2.23999 -0.64,2.55999 -0.16,2.56002 0.48,2.55999 0.96,2.4 1.6,2.24 1.92,1.59999 2.24,1.28 2.56,0.80001 h 2.56 l 2.56,-0.32 2.400002,-1.12001 2.080001,-1.43998 1.759995,-1.92002" /></g><g
         id="g3987"
         transform="matrix(0.1595942,0,0,0.16734472,147.64162,140.81779)"
         style="stroke-width:6.11907053"><path
           id="path3985"
           style="fill:none;stroke:#000000;stroke-width:5.87430716;stroke-linecap:round;stroke-linejoin:round;stroke-miterlimit:10;stroke-dasharray:none;stroke-opacity:1"
           d="M 640.64001,696.47998 521.59998,866.40002 m 119.04003,-129.44 -90.55999,129.44" /></g><g
         id="g3991"
         transform="matrix(0.1595942,0,0,0.16734472,147.64162,140.81779)"
         style="stroke-width:6.11907053"><path
           id="path3989"
           style="fill:none;stroke:#000000;stroke-width:5.87430716;stroke-linecap:round;stroke-linejoin:round;stroke-miterlimit:10;stroke-dasharray:none;stroke-opacity:1"
           d="m 175.67999,169.11999 v 92.96 h 92.96002 v -92.96" /></g><g
         id="g3995"
         transform="matrix(0.1595942,0,0,0.16734472,147.64162,140.81779)"
         style="stroke-width:6.11907053"><path
           id="path3993"
           style="fill:none;stroke:#000000;stroke-width:5.87430716;stroke-linecap:round;stroke-linejoin:round;stroke-miterlimit:10;stroke-dasharray:none;stroke-opacity:1"
           d="M 292,169.11999 V 285.28 H 175.67999" /></g><g
         id="g3999"
         transform="matrix(0.1595942,0,0,0.16734472,147.64162,140.81779)"
         style="stroke-width:6.11907053"><path
           id="path3997"
           style="fill:none;stroke:#000000;stroke-width:5.87430716;stroke-linecap:round;stroke-linejoin:round;stroke-miterlimit:10;stroke-dasharray:none;stroke-opacity:1"
           d="M 396.48001,215.52 V 495.20001" /></g><g
         transform="matrix(0.1595942,0,0,0.16734472,214.64565,176.88393)"
         id="g4003"
         style="stroke-width:6.11907053"><path
           id="path4001"
           style="fill:none;stroke:#000000;stroke-width:5.87430716;stroke-linecap:round;stroke-linejoin:round;stroke-miterlimit:10;stroke-dasharray:none;stroke-opacity:1"
           d="m 0,0 -0.32,-2.56 -0.96,-2.4 -1.28,-2.24 -1.92,-1.92 -2.08,-1.28 -2.56,-0.96 -2.56,-0.32 -2.56,0.32 -2.559999,0.96 -2.08,1.28 -1.92,1.92 -1.280001,2.24 -0.960001,2.4 -0.32,2.56" /></g><g
         id="g4007"
         transform="matrix(0.1595942,0,0,0.16734472,147.64162,140.81779)"
         style="stroke-width:6.11907053"><path
           id="path4005"
           style="fill:none;stroke:#000000;stroke-width:5.87430716;stroke-linecap:round;stroke-linejoin:round;stroke-miterlimit:10;stroke-dasharray:none;stroke-opacity:1"
           d="M 419.84,215.52 V 517.76001" /></g><g
         transform="matrix(0.1595942,0,0,0.16734472,211.70911,229.04193)"
         id="g4011"
         style="stroke-width:6.11907053"><path
           id="path4009"
           style="fill:none;stroke:#000000;stroke-width:5.87430716;stroke-linecap:round;stroke-linejoin:round;stroke-miterlimit:10;stroke-dasharray:none;stroke-opacity:1"
           d="M 0,0 2.24,1.28 4.64,1.92 7.2,2.08 9.6,1.76 12,0.8 14.08,-0.48 16,-2.4 17.280001,-4.48 18.08,-6.88 18.4,-9.44" /></g><g
         id="g4015"
         transform="matrix(0.1595942,0,0,0.16734472,147.64162,140.81779)"
         style="stroke-width:6.11907053"><path
           id="path4013"
           style="fill:none;stroke:#000000;stroke-width:5.87430716;stroke-linecap:round;stroke-linejoin:round;stroke-miterlimit:10;stroke-dasharray:none;stroke-opacity:1"
           d="m 564.64001,262.07999 -3.35998,-5.12 -4,-4.63998" /></g><g
         id="g4019"
         transform="matrix(0.1595942,0,0,0.16734472,147.64162,140.81779)"
         style="stroke-width:6.11907053"><path
           id="path4017"
           style="fill:none;stroke:#000000;stroke-width:5.87430716;stroke-linecap:round;stroke-linejoin:round;stroke-miterlimit:10;stroke-dasharray:none;stroke-opacity:1"
           d="m 547.67999,244.96001 -5.44,-2.72001 -5.76001,-1.91999" /></g><g
         id="g4023"
         transform="matrix(0.1595942,0,0,0.16734472,147.64162,140.81779)"
         style="stroke-width:6.11907053"><path
           id="path4021"
           style="fill:none;stroke:#000000;stroke-width:5.87430716;stroke-linecap:round;stroke-linejoin:round;stroke-miterlimit:10;stroke-dasharray:none;stroke-opacity:1"
           d="m 524.47998,238.72 -6.07996,0.48 -6.08001,1.12001" /></g><g
         id="g4027"
         transform="matrix(0.1595942,0,0,0.16734472,147.64162,140.81779)"
         style="stroke-width:6.11907053"><path
           id="path4025"
           style="fill:none;stroke:#000000;stroke-width:5.87430716;stroke-linecap:round;stroke-linejoin:round;stroke-miterlimit:10;stroke-dasharray:none;stroke-opacity:1"
           d="m 501.12,244.96001 -4.96,3.36 -4.64001,4" /></g><g
         id="g4031"
         transform="matrix(0.1595942,0,0,0.16734472,147.64162,140.81779)"
         style="stroke-width:6.11907053"><path
           id="path4029"
           style="fill:none;stroke:#000000;stroke-width:5.87430716;stroke-linecap:round;stroke-linejoin:round;stroke-miterlimit:10;stroke-dasharray:none;stroke-opacity:1"
           d="m 484.16,262.07999 -2.72,5.44 -1.92001,5.76001" /></g><g
         id="g4035"
         transform="matrix(0.1595942,0,0,0.16734472,147.64162,140.81779)"
         style="stroke-width:6.11907053"><path
           id="path4033"
           style="fill:none;stroke:#000000;stroke-width:5.87430716;stroke-linecap:round;stroke-linejoin:round;stroke-miterlimit:10;stroke-dasharray:none;stroke-opacity:1"
           d="m 477.92001,285.28 0.31998,6.07999 1.28,5.92001" /></g><g
         id="g4039"
         transform="matrix(0.1595942,0,0,0.16734472,147.64162,140.81779)"
         style="stroke-width:6.11907053"><path
           id="path4037"
           style="fill:none;stroke:#000000;stroke-width:5.87430716;stroke-linecap:round;stroke-linejoin:round;stroke-miterlimit:10;stroke-dasharray:none;stroke-opacity:1"
           d="m 484.16,308.48001 3.35999,5.12 4,4.47998" /></g><g
         id="g4043"
         transform="matrix(0.1595942,0,0,0.16734472,147.64162,140.81779)"
         style="stroke-width:6.11907053"><path
           id="path4041"
           style="fill:none;stroke:#000000;stroke-width:5.87430716;stroke-linecap:round;stroke-linejoin:round;stroke-miterlimit:10;stroke-dasharray:none;stroke-opacity:1"
           d="m 501.12,325.60001 5.44,2.55999 5.76001,2.07999" /></g><g
         id="g4047"
         transform="matrix(0.1595942,0,0,0.16734472,147.64162,140.81779)"
         style="stroke-width:6.11907053"><path
           id="path4045"
           style="fill:none;stroke:#000000;stroke-width:5.87430716;stroke-linecap:round;stroke-linejoin:round;stroke-miterlimit:10;stroke-dasharray:none;stroke-opacity:1"
           d="m 524.47998,331.84 5.92004,-0.48001 6.07996,-1.12" /></g><g
         id="g4051"
         transform="matrix(0.1595942,0,0,0.16734472,147.64162,140.81779)"
         style="stroke-width:6.11907053"><path
           id="path4049"
           style="fill:none;stroke:#000000;stroke-width:5.87430716;stroke-linecap:round;stroke-linejoin:round;stroke-miterlimit:10;stroke-dasharray:none;stroke-opacity:1"
           d="m 547.67999,325.60001 4.96002,-3.52002 4.64002,-4" /></g><g
         id="g4055"
         transform="matrix(0.1595942,0,0,0.16734472,147.64162,140.81779)"
         style="stroke-width:6.11907053"><path
           id="path4053"
           style="fill:none;stroke:#000000;stroke-width:5.87430716;stroke-linecap:round;stroke-linejoin:round;stroke-miterlimit:10;stroke-dasharray:none;stroke-opacity:1"
           d="m 564.64001,308.48001 2.71997,-5.44 1.92005,-5.76001" /></g><g
         id="g4059"
         transform="matrix(0.1595942,0,0,0.16734472,147.64162,140.81779)"
         style="stroke-width:6.11907053"><path
           id="path4057"
           style="fill:none;stroke:#000000;stroke-width:5.87430716;stroke-linecap:round;stroke-linejoin:round;stroke-miterlimit:10;stroke-dasharray:none;stroke-opacity:1"
           d="m 570.88,285.28 -0.32,-6.07999 -1.27997,-5.92001" /></g><g
         transform="matrix(0.1595942,0,0,0.16734472,229.40492,181.03408)"
         id="g4063"
         style="stroke-width:6.11907053"><path
           id="path4061"
           style="fill:none;stroke:#000000;stroke-width:5.87430716;stroke-linecap:round;stroke-linejoin:round;stroke-miterlimit:10;stroke-dasharray:none;stroke-opacity:1"
           d="m 0,0 -1.44,-5.6 m -9.76,10.24 -2.88,-4.96 m -6.719999,12.32 -4.16,-4 M -28.16,21.76 -33.279999,18.719999 m 0.48,14.24 -5.600003,-1.599998 m 4,13.599998 H -40.16 m 98.720001,0 H 64.32 M 12.16,-1.6 v -5.76 m 12,7.36 1.44,-5.6 m 9.760001,10.24 2.880001,-4.96 m 6.719997,12.32 4.16,-4 M 52.32,21.76 57.439999,18.719999 m -0.48,14.24 5.600002,-1.599998 M 0,89.919998 -1.44,95.519997 m -9.76,-10.239998 -2.88,4.959999 m -6.719999,-12.479996 -4.16,4.159996 M -28.16,68.160004 l -5.119999,2.879997 m 0.48,-14.080002 -5.600003,1.600002 M 12.16,91.519997 v 5.760002 m 12,-7.360001 1.44,5.599999 m 9.760001,-10.239998 2.880001,4.959999 m 6.719997,-12.479996 4.16,4.159996 M 52.32,68.160004 l 5.119999,2.879997 m -0.48,-14.080002 5.600002,1.600002" /></g><g
         id="g4067"
         transform="matrix(0.1595942,0,0,0.16734472,147.64162,140.81779)"
         style="stroke-width:6.11907053"><path
           id="path4065"
           style="fill:none;stroke:#000000;stroke-width:5.87430716;stroke-linecap:round;stroke-linejoin:round;stroke-miterlimit:10;stroke-dasharray:none;stroke-opacity:1"
           d="m 473.92001,271.67999 -1.44,6.72 L 472.16,285.28" /></g><g
         id="g4071"
         transform="matrix(0.1595942,0,0,0.16734472,147.64162,140.81779)"
         style="stroke-width:6.11907053"><path
           id="path4069"
           style="fill:none;stroke:#000000;stroke-width:5.87430716;stroke-linecap:round;stroke-linejoin:round;stroke-miterlimit:10;stroke-dasharray:none;stroke-opacity:1"
           d="m 473.92001,298.88 2.07999,6.4 3.04001,6.07999" /></g><g
         id="g4075"
         transform="matrix(0.1595942,0,0,0.16734472,147.64162,140.81779)"
         style="stroke-width:6.11907053"><path
           id="path4073"
           style="fill:none;stroke:#000000;stroke-width:5.87430716;stroke-linecap:round;stroke-linejoin:round;stroke-miterlimit:10;stroke-dasharray:none;stroke-opacity:1"
           d="m 487.35999,322.23999 5.12002,4.48001 5.75998,3.84" /></g><g
         id="g4079"
         transform="matrix(0.1595942,0,0,0.16734472,147.64162,140.81779)"
         style="stroke-width:6.11907053"><path
           id="path4077"
           style="fill:none;stroke:#000000;stroke-width:5.87430716;stroke-linecap:round;stroke-linejoin:round;stroke-miterlimit:10;stroke-dasharray:none;stroke-opacity:1"
           d="m 510.88,335.84 6.71998,1.28 6.88,0.48001" /></g><g
         id="g4083"
         transform="matrix(0.1595942,0,0,0.16734472,147.64162,140.81779)"
         style="stroke-width:6.11907053"><path
           id="path4081"
           style="fill:none;stroke:#000000;stroke-width:5.87430716;stroke-linecap:round;stroke-linejoin:round;stroke-miterlimit:10;stroke-dasharray:none;stroke-opacity:1"
           d="m 537.91998,335.84 6.56,-2.23999 L 550.56,330.56" /></g><g
         id="g4087"
         transform="matrix(0.1595942,0,0,0.16734472,147.64162,140.81779)"
         style="stroke-width:6.11907053"><path
           id="path4085"
           style="fill:none;stroke:#000000;stroke-width:5.87430716;stroke-linecap:round;stroke-linejoin:round;stroke-miterlimit:10;stroke-dasharray:none;stroke-opacity:1"
           d="m 561.44,322.23999 4.47998,-5.11999 3.84003,-5.76001" /></g><g
         id="g4091"
         transform="matrix(0.1595942,0,0,0.16734472,147.64162,140.81779)"
         style="stroke-width:6.11907053"><path
           id="path4089"
           style="fill:none;stroke:#000000;stroke-width:5.87430716;stroke-linecap:round;stroke-linejoin:round;stroke-miterlimit:10;stroke-dasharray:none;stroke-opacity:1"
           d="m 574.88,298.88 1.44001,-6.72 0.32,-6.88" /></g><g
         id="g4095"
         transform="matrix(0.1595942,0,0,0.16734472,147.64162,140.81779)"
         style="stroke-width:6.11907053"><path
           id="path4093"
           style="fill:none;stroke:#000000;stroke-width:5.87430716;stroke-linecap:round;stroke-linejoin:round;stroke-miterlimit:10;stroke-dasharray:none;stroke-opacity:1"
           d="m 574.88,271.67999 -2.08001,-6.39999 -3.03998,-6.23999" /></g><g
         id="g4099"
         transform="matrix(0.1595942,0,0,0.16734472,147.64162,140.81779)"
         style="stroke-width:6.11907053"><path
           id="path4097"
           style="fill:none;stroke:#000000;stroke-width:5.87430716;stroke-linecap:round;stroke-linejoin:round;stroke-miterlimit:10;stroke-dasharray:none;stroke-opacity:1"
           d="M 561.44,248.32001 556.32001,243.84 550.56,240" /></g><g
         id="g4103"
         transform="matrix(0.1595942,0,0,0.16734472,147.64162,140.81779)"
         style="stroke-width:6.11907053"><path
           id="path4101"
           style="fill:none;stroke:#000000;stroke-width:5.87430716;stroke-linecap:round;stroke-linejoin:round;stroke-miterlimit:10;stroke-dasharray:none;stroke-opacity:1"
           d="m 537.91998,234.72 -6.71997,-1.28 -6.72003,-0.47999" /></g><g
         id="g4107"
         transform="matrix(0.1595942,0,0,0.16734472,147.64162,140.81779)"
         style="stroke-width:6.11907053"><path
           id="path4105"
           style="fill:none;stroke:#000000;stroke-width:5.87430716;stroke-linecap:round;stroke-linejoin:round;stroke-miterlimit:10;stroke-dasharray:none;stroke-opacity:1"
           d="m 510.88,234.72 -6.55999,2.24001 L 498.23999,240" /></g><g
         id="g4111"
         transform="matrix(0.1595942,0,0,0.16734472,147.64162,140.81779)"
         style="stroke-width:6.11907053"><path
           id="path4109"
           style="fill:none;stroke:#000000;stroke-width:5.87430716;stroke-linecap:round;stroke-linejoin:round;stroke-miterlimit:10;stroke-dasharray:none;stroke-opacity:1"
           d="M 487.35999,248.32001 482.88,253.44 l -3.83999,5.60001 5.11999,3.03998" /></g><g
         transform="matrix(0.1595942,0,0,0.16734472,210.43236,278.84372)"
         id="g4115"
         style="stroke-width:6.11907053"><path
           id="path4113"
           style="fill:none;stroke:#000000;stroke-width:5.87430716;stroke-linecap:round;stroke-linejoin:round;stroke-miterlimit:10;stroke-dasharray:none;stroke-opacity:1"
           d="m 0,0 -0.32,-3.52 -0.96,-3.52 -1.28,-3.36 -1.92,-3.2 -2.4,-2.72 -2.72,-2.399999 -3.2,-1.92 -3.36,-1.440001 -3.52,-0.799999 -3.680001,-0.320002 -3.519998,0.320002 -3.68,0.799999 -3.359999,1.440001 -3.040001,1.92 L -39.68,-16.32 -42.080002,-13.6 -44,-10.4 l -1.439999,3.36 -0.800003,3.52 -0.319999,3.52 0.319999,3.68 0.800003,3.52 1.439999,3.36 1.919998,3.2 2.400002,2.72 2.720001,2.399999 3.040001,1.92 3.359999,1.440001 3.68,0.800001 3.519998,0.32 3.680001,-0.32 3.52,-0.800001 3.36,-1.440001 3.2,-1.92 2.72,-2.399999 2.4,-2.72 1.92,-3.2 1.28,-3.36 0.96,-3.52 z" /></g><g
         transform="matrix(0.1595942,0,0,0.16734472,196.28593,261.54697)"
         id="g4119"
         style="stroke-width:6.11907053"><path
           id="path4117"
           style="fill:none;stroke:#000000;stroke-width:5.87430716;stroke-linecap:round;stroke-linejoin:round;stroke-miterlimit:10;stroke-dasharray:none;stroke-opacity:1"
           d="m 0,0 -0.32,-4.48 -0.8,-4.48 -1.6,-4.32 -1.92,-4.160001 -2.56,-3.84 -3.04,-3.359998 -3.36,-3.040001 -3.840001,-2.56 -4.159999,-1.92 -4.32,-1.439998 -4.48,-0.960003 -4.480001,-0.32 -4.48,0.32 -4.479999,0.960003 -4.32,1.439998 -4.16,1.92 -3.84,2.56 -3.36,3.040001 -3.040001,3.359998 -2.560002,3.84 -1.919998,4.160001 -1.440002,4.32 -0.959999,4.48 -0.32,4.48 0.32,4.48 0.959999,4.48 1.440002,4.32 1.919998,4.160001 2.560002,3.84 3.040001,3.359998 3.36,3.040001 3.84,2.56 4.16,1.92 4.32,1.599998 4.479999,0.800003 4.48,0.32 4.480001,-0.32 4.48,-0.800003 4.32,-1.599998 4.159999,-1.92 3.840001,-2.56 3.36,-3.040001 3.04,-3.359998 2.56,-3.84 1.92,-4.160001 1.6,-4.32 0.8,-4.48 z" /></g><g
         transform="matrix(0.1595942,0,0,0.16734472,194.03884,237.82418)"
         id="g4123"
         style="stroke-width:6.11907053"><path
           id="path4121"
           style="fill:none;stroke:#000000;stroke-width:5.87430716;stroke-linecap:round;stroke-linejoin:round;stroke-miterlimit:10;stroke-dasharray:none;stroke-opacity:1"
           d="m 0,0 -0.32,-5.12 -0.8,-5.12 -1.44,-4.96 -2.08,-4.96 -2.4,-4.479999 -3.04,-4.32 -3.52,-3.84 L -17.440001,-36.32 -21.76,-39.360001 -26.24,-41.759998 -31.040001,-43.84 -36.16,-45.279999 l -5.119999,-0.800003 -5.120003,-0.32 -5.279998,0.32 -5.119999,0.800003 -4.959999,1.439999 -4.960003,2.080002 -4.479996,2.399997 -4.32,3.040001 -3.840004,3.520001 -3.519996,3.84 -3.040001,4.32 L -88.32,-20.16 l -2.080002,4.96 -1.439994,4.96 -0.800003,5.12 -0.32,5.12 0.32,5.28 0.800003,5.12 1.439994,4.96 2.080002,4.96 2.400002,4.479999 3.040001,4.320002 3.519996,3.839998 3.840004,3.520001 4.32,3.04 4.479996,2.399998 4.960003,2.080002 4.959999,1.439999 5.119999,0.800003 5.279998,0.319999 5.120003,-0.319999 L -36.16,45.439999 -31.040001,44 -26.24,41.919998 -21.76,39.52 -17.440001,36.48 -13.6,32.959999 l 3.52,-3.839998 3.04,-4.320002 2.4,-4.479999 2.08,-4.96 1.44,-4.96 0.8,-5.12 z" /></g></g><path
       transform="translate(175.2037,168.62061)"
       id="path5748"
       d="M 23.820665,50.21613 C 16.103798,44.430639 10.511843,40.145632 10.422383,39.949289 c -0.223326,-0.490146 -0.03059,-1.27599 0.395058,-1.610808 0.359397,-0.282701 0.490094,-0.28572 12.369801,-0.28572 h 12.006566 v 1.32839 1.32839 h -8.922426 c -9.499063,0 -9.481911,-0.0013 -9.373692,0.659949 0.03319,0.202806 2.95746,2.481996 9.377733,7.309063 9.653333,7.257834 9.740629,7.315156 9.950107,6.533772 0.04571,-0.170493 0.08396,-10.924859 0.08501,-23.898589 l 0.0019,-23.5886005 0.334737,-0.3891534 c 0.263028,-0.3057895 0.455338,-0.3891534 0.897728,-0.3891534 0.680852,0 1.087891,0.3262786 1.28292,1.0283771 0.194051,0.6985767 0.192282,50.5137342 -0.0018,51.2125432 -0.07791,0.280493 -0.295578,0.610843 -0.483707,0.734111 -0.874499,0.572993 -0.29462,0.960561 -14.521647,-9.70573 z"
       style="fill:#000000;fill-opacity:1;stroke-width:1" /><path
       transform="translate(175.2037,168.62061)"
       id="path5750"
       d="m 42.795979,109.39817 c -0.440509,-0.35683 -0.649472,-0.85148 -0.556364,-1.31702 0.04532,-0.22662 4.155833,-6.49557 9.134467,-13.931015 6.894483,-10.296705 9.052905,-13.618971 9.055598,-13.938476 l 0.0035,-0.419491 -11.605932,-0.06992 C 42.44402,79.683799 37.108907,79.59752 36.971476,79.53052 c -0.333667,-0.162668 -0.659024,-0.816377 -0.659024,-1.324118 0,-0.312124 2.91196,-4.772277 12.095339,-18.526032 6.652437,-9.963217 12.095339,-18.242377 12.095339,-18.398134 0,-0.155757 -0.121711,-0.348332 -0.270468,-0.427945 -0.179214,-0.09591 -3.646817,-0.14475 -10.277542,-0.14475 H 39.948046 v -1.32839 -1.32839 h 12.036179 12.036181 l 0.408734,0.408735 c 0.86712,0.86712 1.608995,-0.373248 -11.686603,19.539294 -6.652436,9.963216 -12.095339,18.221662 -12.095339,18.3521 0,0.579326 -0.136039,0.572752 11.8544,0.572752 h 11.518808 l 0.408734,0.408736 c 0.853539,0.853538 1.409245,-0.09471 -9.793319,16.711186 -5.611129,8.417726 -10.326272,15.371436 -10.478095,15.452686 -0.40924,0.21902 -1.023549,0.17387 -1.361747,-0.10008 z"
       style="fill:#ff0000;fill-opacity:1;stroke-width:1" /><path
       transform="translate(175.2037,168.62061)"
       id="path5752"
       d="m 30.198748,113.20482 c -1.226523,-0.6112 -1.969271,-1.95789 -1.812041,-3.28545 0.323819,-2.73415 3.391619,-3.94702 5.259332,-2.07931 1.018952,1.01896 1.274117,2.51495 0.655543,3.84337 -0.76884,1.65113 -2.531128,2.30461 -4.102834,1.52139 z"
       style="fill:#ff0000;fill-opacity:1;stroke-width:1" /><path
       transform="translate(175.2037,168.62061)"
       id="path5754"
       d="m 14.092781,97.978277 c -2.472657,-0.807521 -3.993486,-3.477557 -3.454144,-6.064254 0.376056,-1.803573 1.22531,-2.960489 2.709583,-3.691194 0.84885,-0.417888 1.051329,-0.460212 2.196462,-0.459128 1.091723,0.001 1.367251,0.05303 2.048155,0.386512 0.970089,0.475114 1.977809,1.529291 2.474099,2.588158 0.329254,0.702484 0.374348,0.96933 0.371416,2.197865 -0.0029,1.213252 -0.05218,1.503381 -0.372399,2.192289 -0.832321,1.790629 -2.42303,2.899189 -4.299323,2.996185 -0.682271,0.03527 -1.276698,-0.01673 -1.673849,-0.146433 z"
       style="fill:#32cd32;fill-opacity:1;stroke-width:1" /><path
       transform="translate(175.2037,168.62061)"
       id="path5756"
       d="M 9.4367066,76.096336 C 6.5069024,75.159563 4.570927,72.393156 4.570927,69.143393 c 0,-4.243489 3.7871689,-7.678589 7.780206,-7.056931 3.391055,0.527938 5.923184,3.583884 5.923184,7.148502 0,3.141935 -2.011781,5.972188 -4.873839,6.856711 -1.144156,0.353604 -2.866102,0.355628 -3.9637714,0.0047 z"
       style="fill:#0000ff;fill-opacity:1;stroke-width:1" /><path
       transform="translate(175.2037,168.62061)"
       id="path5758"
       d="m 42.668385,109.16293 c -0.207237,-0.20724 -0.343221,-0.50453 -0.343221,-0.75036 0,-0.4967 0.845033,-1.81358 9.931044,-15.476334 3.733556,-5.614195 7.116478,-10.751217 7.517603,-11.415606 1.188337,-1.968253 1.61403,-1.796037 -4.479367,-1.812159 -2.864778,-0.0076 -8.148143,-0.05477 -11.740813,-0.104873 -7.173255,-0.100032 -6.829832,-0.05327 -7.091489,-0.965614 -0.115766,-0.403652 -0.03473,-0.590086 0.93921,-2.160742 0.58625,-0.945434 2.991982,-4.613464 5.346071,-8.151176 6.765309,-10.166865 15.954397,-24.062228 16.895715,-25.549007 0.472996,-0.747082 0.859992,-1.45276 0.859992,-1.568174 0,-0.115414 -0.121711,-0.274981 -0.270468,-0.354594 -0.179214,-0.09591 -3.646817,-0.14475 -10.277542,-0.14475 H 39.948046 v -1.32839 -1.32839 h 12.010938 12.010939 l 0.43387,0.494152 c 0.428303,0.48781 0.431108,0.50082 0.218542,1.013771 -0.439921,1.061591 -1.942059,3.383315 -10.929747,16.893169 C 42.281681,73.60617 40.615326,76.16747 40.672836,76.466095 c 0.02516,0.130647 0.202725,0.281219 0.394588,0.334605 0.191863,0.05339 5.410759,0.103339 11.597546,0.111004 l 11.248705,0.01394 0.392185,0.375737 c 0.544317,0.521488 0.498963,0.901594 -0.272016,2.27971 -0.65349,1.168101 -14.045537,21.353969 -17.92844,27.023579 l -1.987116,2.90148 h -0.553341 c -0.401058,0 -0.647799,-0.0945 -0.896562,-0.34322 z"
       style="fill:#000000;fill-opacity:1;stroke-width:1" /></g></svg>